<?xml version="1.0" standalone="no"?>
<!DOCTYPE svg PUBLIC "-//W3C//DTD SVG 20010904//EN"
 "http://www.w3.org/TR/2001/REC-SVG-20010904/DTD/svg10.dtd">
<svg version="1.0" xmlns="http://www.w3.org/2000/svg"
 width="1200.000000pt" height="1200.000000pt" viewBox="0 0 1200.000000 1200.000000"
 preserveAspectRatio="xMidYMid meet">
<metadata>
Created by potrace 1.14, written by Peter Selinger 2001-2017
</metadata>
<g transform="translate(0.000000,1200.000000) scale(0.100000,-0.100000)"
fill="#000000" stroke="none">
<path d="M5718 11995 c-1 -1 -57 -6 -123 -9 -66 -4 -136 -9 -155 -11 -19 -3
-60 -7 -90 -10 -111 -12 -146 -16 -170 -20 -14 -3 -50 -7 -80 -11 -30 -3 -57
-8 -60 -9 -3 -2 -26 -6 -50 -10 -62 -9 -216 -39 -330 -65 -52 -12 -102 -23
-111 -25 -206 -43 -744 -227 -967 -331 -41 -19 -76 -34 -79 -34 -7 0 -354
-174 -408 -205 -27 -16 -83 -48 -122 -72 -40 -24 -77 -43 -83 -43 -5 0 -10 -4
-10 -10 0 -5 -5 -10 -11 -10 -32 0 -616 -414 -689 -490 -3 -3 -26 -22 -52 -42
-25 -21 -64 -55 -87 -75 -23 -21 -69 -63 -102 -93 -208 -186 -483 -486 -682
-743 -131 -167 -389 -551 -430 -637 -4 -8 -17 -31 -28 -50 -66 -109 -181 -333
-259 -505 -184 -404 -321 -833 -416 -1300 -2 -11 -6 -31 -9 -45 -3 -14 -10
-52 -15 -85 -5 -33 -12 -69 -14 -80 -2 -11 -7 -42 -10 -70 -4 -27 -11 -79 -16
-115 -5 -36 -12 -96 -16 -135 -3 -38 -8 -77 -9 -86 -19 -101 -27 -770 -12
-979 14 -197 42 -445 68 -592 6 -32 12 -70 14 -85 19 -123 96 -445 150 -628
158 -536 363 -989 678 -1499 134 -218 415 -593 576 -770 341 -375 640 -642
1026 -917 131 -94 338 -228 425 -276 30 -16 80 -45 110 -63 174 -104 593 -297
831 -383 69 -25 137 -50 150 -56 122 -50 591 -174 824 -216 164 -31 382 -62
483 -70 37 -3 81 -8 98 -11 78 -11 273 -18 539 -19 259 0 365 4 570 21 77 6
333 39 385 49 14 3 41 7 60 9 19 2 105 18 190 36 85 18 164 34 174 36 73 14
391 105 536 154 581 193 1157 491 1640 848 72 53 303 235 326 257 6 5 39 35
74 65 276 239 628 617 825 885 16 22 33 42 37 43 4 2 8 10 8 17 0 7 4 15 8 17
10 4 129 173 203 288 371 575 630 1179 793 1850 36 151 89 424 102 525 7 59
16 130 19 146 2 9 6 52 10 95 3 43 8 86 10 94 27 104 27 910 0 1130 -2 19 -7
60 -10 90 -5 48 -10 84 -30 235 -2 17 -7 53 -11 80 -3 28 -8 53 -10 56 -2 4
-8 35 -14 70 -24 157 -74 371 -144 609 -140 481 -345 951 -600 1373 -39 65
-76 126 -81 135 -93 158 -328 477 -503 682 -242 283 -620 647 -847 815 -22 17
-48 38 -59 47 -28 26 -301 219 -396 280 -283 183 -596 349 -892 474 -73 30
-142 60 -153 65 -58 26 -389 139 -535 182 -185 55 -527 132 -695 157 -223 33
-314 44 -440 55 -33 3 -82 8 -110 11 -55 6 -711 14 -717 9z"/>
</g>
</svg>
